<?xml version="1.0" encoding="UTF-8"?>
<?xml-stylesheet href="https://cdnjs.cloudflare.com/ajax/libs/font-awesome/6.6.0/css/all.min.css" type="text/css"?>
<svg aria-roledescription="er" role="graphics-document document" viewBox="0 0 2324.015625 640" style="max-width: 100%;" xmlns="http://www.w3.org/2000/svg" width="100%" id="graph-div" height="100%" xmlns:xlink="http://www.w3.org/1999/xlink"><style>#graph-div{font-family:"trebuchet ms",verdana,arial,sans-serif;font-size:16px;fill:#333;}#graph-div .error-icon{fill:#552222;}#graph-div .error-text{fill:#552222;stroke:#552222;}#graph-div .edge-thickness-normal{stroke-width:1px;}#graph-div .edge-thickness-thick{stroke-width:3.5px;}#graph-div .edge-pattern-solid{stroke-dasharray:0;}#graph-div .edge-thickness-invisible{stroke-width:0;fill:none;}#graph-div .edge-pattern-dashed{stroke-dasharray:3;}#graph-div .edge-pattern-dotted{stroke-dasharray:2;}#graph-div .marker{fill:#333333;stroke:#333333;}#graph-div .marker.cross{stroke:#333333;}#graph-div svg{font-family:"trebuchet ms",verdana,arial,sans-serif;font-size:16px;}#graph-div p{margin:0;}#graph-div .entityBox{fill:#ECECFF;stroke:#9370DB;}#graph-div .attributeBoxOdd{fill:#ffffff;stroke:#9370DB;}#graph-div .attributeBoxEven{fill:#f2f2f2;stroke:#9370DB;}#graph-div .relationshipLabelBox{fill:hsl(80, 100%, 96.2745098039%);opacity:0.7;background-color:hsl(80, 100%, 96.2745098039%);}#graph-div .relationshipLabelBox rect{opacity:0.5;}#graph-div .relationshipLine{stroke:#333333;}#graph-div .entityTitleText{text-anchor:middle;font-size:18px;fill:#333;}#graph-div #MD_PARENT_START{fill:#f5f5f5!important;stroke:#333333!important;stroke-width:1;}#graph-div #MD_PARENT_END{fill:#f5f5f5!important;stroke:#333333!important;stroke-width:1;}#graph-div :root{--mermaid-font-family:"trebuchet ms",verdana,arial,sans-serif;}</style><g></g><defs><marker orient="auto" markerHeight="240" markerWidth="190" refY="7" refX="0" id="MD_PARENT_START"><path d="M 18,7 L9,13 L1,7 L9,1 Z"></path></marker></defs><defs><marker orient="auto" markerHeight="28" markerWidth="20" refY="7" refX="19" id="MD_PARENT_END"><path d="M 18,7 L9,13 L1,7 L9,1 Z"></path></marker></defs><defs><marker orient="auto" markerHeight="18" markerWidth="18" refY="9" refX="0" id="ONLY_ONE_START"><path d="M9,0 L9,18 M15,0 L15,18" fill="none" stroke="gray"></path></marker></defs><defs><marker orient="auto" markerHeight="18" markerWidth="18" refY="9" refX="18" id="ONLY_ONE_END"><path d="M3,0 L3,18 M9,0 L9,18" fill="none" stroke="gray"></path></marker></defs><defs><marker orient="auto" markerHeight="18" markerWidth="30" refY="9" refX="0" id="ZERO_OR_ONE_START"><circle r="6" cy="9" cx="21" fill="white" stroke="gray"></circle><path d="M9,0 L9,18" fill="none" stroke="gray"></path></marker></defs><defs><marker orient="auto" markerHeight="18" markerWidth="30" refY="9" refX="30" id="ZERO_OR_ONE_END"><circle r="6" cy="9" cx="9" fill="white" stroke="gray"></circle><path d="M21,0 L21,18" fill="none" stroke="gray"></path></marker></defs><defs><marker orient="auto" markerHeight="36" markerWidth="45" refY="18" refX="18" id="ONE_OR_MORE_START"><path d="M0,18 Q 18,0 36,18 Q 18,36 0,18 M42,9 L42,27" fill="none" stroke="gray"></path></marker></defs><defs><marker orient="auto" markerHeight="36" markerWidth="45" refY="18" refX="27" id="ONE_OR_MORE_END"><path d="M3,9 L3,27 M9,18 Q27,0 45,18 Q27,36 9,18" fill="none" stroke="gray"></path></marker></defs><defs><marker orient="auto" markerHeight="36" markerWidth="57" refY="18" refX="18" id="ZERO_OR_MORE_START"><circle r="6" cy="18" cx="48" fill="white" stroke="gray"></circle><path d="M0,18 Q18,0 36,18 Q18,36 0,18" fill="none" stroke="gray"></path></marker></defs><defs><marker orient="auto" markerHeight="36" markerWidth="57" refY="18" refX="39" id="ZERO_OR_MORE_END"><circle r="6" cy="18" cx="9" fill="white" stroke="gray"></circle><path d="M21,18 Q39,0 57,18 Q39,36 21,18" fill="none" stroke="gray"></path></marker></defs><path style="stroke: gray; fill: none;" marker-start="url(#ONLY_ONE_START)" marker-end="url(#ZERO_OR_MORE_END)" d="M1105.961,95L1112.467,103.333C1118.974,111.667,1131.987,128.333,1138.493,145C1145,161.667,1145,178.333,1145,186.667L1145,195" class="er relationshipLine"></path><path style="stroke: gray; fill: none;" marker-start="url(#ONLY_ONE_START)" marker-end="url(#ZERO_OR_MORE_END)" d="M1026.681,61.846L867.234,75.705C707.787,89.564,388.894,117.282,229.447,145.724C70,174.167,70,203.333,70,232.5C70,261.667,70,290.833,70,313.75C70,336.667,70,353.333,70,361.667L70,370" class="er relationshipLine"></path><path style="stroke: gray; fill: none;" marker-start="url(#ONLY_ONE_START)" marker-end="url(#ZERO_OR_MORE_END)" d="M1095,236.987L940.833,250.823C786.667,264.658,478.333,292.329,314.643,314.498C150.952,336.667,131.905,353.333,122.381,361.667L112.857,370" class="er relationshipLine"></path><path style="stroke: gray; fill: none;" marker-start="url(#ONLY_ONE_START)" marker-end="url(#ZERO_OR_MORE_END)" d="M1026.681,62.923L900.568,76.603C774.454,90.282,522.227,117.641,396.114,145.904C270,174.167,270,203.333,270,232.5C270,261.667,270,290.833,270,313.75C270,336.667,270,353.333,270,361.667L270,370" class="er relationshipLine"></path><path style="stroke: gray; fill: none;" marker-start="url(#ONLY_ONE_START)" marker-end="url(#ZERO_OR_MORE_END)" d="M1126.681,73.805L1163.068,85.671C1199.454,97.537,1272.227,121.268,1308.614,141.468C1345,161.667,1345,178.333,1345,186.667L1345,195" class="er relationshipLine"></path><path style="stroke: gray; fill: none;" marker-start="url(#ONLY_ONE_START)" marker-end="url(#ONLY_ONE_END)" d="M1295,236.987L1140.833,250.823C986.667,264.658,678.333,292.329,514.643,314.498C350.952,336.667,331.905,353.333,322.381,361.667L312.857,370" class="er relationshipLine"></path><path style="stroke: gray; fill: none;" marker-start="url(#ONLY_ONE_START)" marker-end="url(#ZERO_OR_MORE_END)" d="M1126.681,61.224L1314.173,75.186C1501.666,89.149,1876.65,117.075,2064.142,139.371C2251.634,161.667,2251.634,178.333,2251.634,186.667L2251.634,195" class="er relationshipLine"></path><path style="stroke: gray; fill: none;" marker-start="url(#ONLY_ONE_START)" marker-end="url(#ZERO_OR_MORE_END)" d="M1126.681,61.778L1288.777,75.649C1450.872,89.519,1775.062,117.259,1937.158,145.713C2099.253,174.167,2099.253,203.333,2099.253,232.5C2099.253,261.667,2099.253,290.833,2105.056,313.75C2110.86,336.667,2122.466,353.333,2128.269,361.667L2134.073,370" class="er relationshipLine"></path><path style="stroke: gray; fill: none;" marker-start="url(#ONLY_ONE_START)" marker-end="url(#ZERO_OR_MORE_END)" d="M1026.681,64.711L933.901,78.093C841.121,91.474,655.56,118.237,562.78,146.202C470,174.167,470,203.333,470,232.5C470,261.667,470,290.833,470,320C470,349.167,470,378.333,470,407.5C470,436.667,470,465.833,589.691,493.909C709.382,521.986,948.765,548.971,1068.456,562.464L1188.147,575.957" class="er relationshipLine"></path><path style="stroke: gray; fill: none;" marker-start="url(#ONLY_ONE_START)" marker-end="url(#ZERO_OR_MORE_END)" d="M2251.634,270L2251.634,278.333C2251.634,286.667,2251.634,303.333,2242.925,320C2234.216,336.667,2216.797,353.333,2208.088,361.667L2199.379,370" class="er relationshipLine"></path><path style="stroke: gray; fill: none;" marker-start="url(#ONLY_ONE_START)" marker-end="url(#ZERO_OR_MORE_END)" d="M2160.187,445L2160.187,453.333C2160.187,461.667,2160.187,478.333,2017.529,500.324C1874.87,522.314,1589.552,549.629,1446.893,563.286L1304.234,576.943" class="er relationshipLine"></path><path style="stroke: gray; fill: none;" marker-start="url(#ONE_OR_MORE_START)" marker-end="url(#ZERO_OR_MORE_END)" d="M1026.681,66.583L954.734,79.652C882.787,92.722,738.894,118.861,666.947,146.514C595,174.167,595,203.333,595,232.5C595,261.667,595,290.833,688.606,318.522C782.213,346.21,969.425,372.42,1063.031,385.524L1156.638,398.629" class="er relationshipLine"></path><path style="stroke: gray; fill: none;" marker-start="url(#ONE_OR_MORE_START)" marker-end="url(#ONLY_ONE_END)" d="M1295,245.962L1249.167,258.301C1203.333,270.641,1111.667,295.321,1088.606,317.623C1065.546,339.926,1111.092,359.853,1133.865,369.816L1156.638,379.779" class="er relationshipLine"></path><path style="stroke: gray; fill: none;" marker-start="url(#ZERO_OR_MORE_START)" marker-end="url(#ZERO_OR_MORE_END)" d="M1366.429,270L1371.19,278.333C1375.952,286.667,1385.476,303.333,1371.632,320.97C1357.787,338.606,1320.575,357.213,1301.969,366.516L1283.362,375.819" class="er relationshipLine"></path><path style="stroke: gray; fill: none;" marker-start="url(#ONE_OR_MORE_START)" marker-end="url(#ZERO_OR_MORE_END)" d="M1126.681,65.941L1204.734,79.117C1282.787,92.294,1438.894,118.647,1516.947,146.407C1595,174.167,1595,203.333,1595,232.5C1595,261.667,1595,290.833,1605.16,313.75C1615.32,336.667,1635.64,353.333,1645.801,361.667L1655.961,370" class="er relationshipLine"></path><path style="stroke: gray; fill: none;" marker-start="url(#ONE_OR_MORE_START)" marker-end="url(#ZERO_OR_MORE_END)" d="M1195,240.455L1278.333,253.712C1361.667,266.97,1528.333,293.485,1612.303,315.076C1696.273,336.667,1697.545,353.333,1698.182,361.667L1698.818,370" class="er relationshipLine"></path><path style="stroke: gray; fill: none;" marker-start="url(#ONE_OR_MORE_START)" marker-end="url(#ZERO_OR_MORE_END)" d="M1395,240.455L1478.333,253.712C1561.667,266.97,1728.333,293.485,1816.429,315.076C1904.524,336.667,1914.048,353.333,1918.81,361.667L1923.571,370" class="er relationshipLine"></path><path style="stroke: gray; fill: none;" marker-start="url(#ONLY_ONE_START)" marker-end="url(#ZERO_OR_MORE_END)" d="M1126.681,64.046L1229.734,77.539C1332.787,91.031,1538.894,118.015,1646.709,139.841C1754.524,161.667,1764.048,178.333,1768.81,186.667L1773.571,195" class="er relationshipLine"></path><path style="stroke: gray; fill: none;" marker-start="url(#ONLY_ONE_START)" marker-end="url(#ZERO_OR_MORE_END)" d="M2010.187,84.685L1991.698,94.737C1973.209,104.79,1936.231,124.895,1907.813,143.281C1879.395,161.667,1859.538,178.333,1849.609,186.667L1839.68,195" class="er relationshipLine"></path><path style="stroke: gray; fill: none;" marker-start="url(#ZERO_OR_MORE_START)" marker-end="url(#ZERO_OR_MORE_END)" d="M1795,270L1795,278.333C1795,286.667,1795,303.333,1786.112,320C1777.225,336.667,1759.45,353.333,1750.562,361.667L1741.675,370" class="er relationshipLine"></path><path style="stroke: gray; fill: none;" marker-start="url(#ONE_OR_MORE_START)" marker-end="url(#ONLY_ONE_END)" d="M1845,253.92L1870.709,264.933C1896.418,275.946,1947.835,297.973,1968.377,317.32C1988.919,336.667,1978.585,353.333,1973.418,361.667L1968.251,370" class="er relationshipLine"></path><path style="stroke: gray; fill: none;" marker-start="url(#ZERO_OR_MORE_START)" marker-end="url(#ZERO_OR_MORE_END)" d="M1745,247.083L1703.333,259.236C1661.667,271.389,1578.333,295.694,1501.394,319.07C1424.454,342.446,1353.908,364.893,1318.635,376.116L1283.362,387.339" class="er relationshipLine"></path><path style="stroke: gray; fill: none;" marker-start="url(#ONE_OR_MORE_START)" marker-end="url(#ZERO_OR_MORE_END)" d="M1026.681,70.69L979.734,83.075C932.787,95.46,838.894,120.23,791.947,140.948C745,161.667,745,178.333,745,186.667L745,195" class="er relationshipLine"></path><path style="stroke: gray; fill: none;" marker-start="url(#ONLY_ONE_START)" marker-end="url(#ZERO_OR_MORE_END)" d="M1026.681,90.724L1013.068,99.77C999.454,108.816,972.227,126.908,958.614,144.287C945,161.667,945,178.333,945,186.667L945,195" class="er relationshipLine"></path><g transform="translate(1026.6812496185303,20 )" id="entity-Users-8b6eb67b-f64b-5426-9c24-135a96b8b656"><rect height="75" width="100" y="0" x="0" class="er entityBox"></rect><text style="dominant-baseline: middle; text-anchor: middle; font-size: 12px;" transform="translate(50,37.5)" y="0" x="0" id="text-entity-Users-8b6eb67b-f64b-5426-9c24-135a96b8b656" class="er entityLabel">Users</text></g><g transform="translate(1095,195 )" id="entity-Questions-5bbeac4d-b7a5-507b-a2ee-b7f000d970f2"><rect height="75" width="100" y="0" x="0" class="er entityBox"></rect><text style="dominant-baseline: middle; text-anchor: middle; font-size: 12px;" transform="translate(50,37.5)" y="0" x="0" id="text-entity-Questions-5bbeac4d-b7a5-507b-a2ee-b7f000d970f2" class="er entityLabel">Questions</text></g><g transform="translate(20,370 )" id="entity-Answers-8e7337bb-b0d3-5c81-942f-a21e9d5fc6ad"><rect height="75" width="100" y="0" x="0" class="er entityBox"></rect><text style="dominant-baseline: middle; text-anchor: middle; font-size: 12px;" transform="translate(50,37.5)" y="0" x="0" id="text-entity-Answers-8e7337bb-b0d3-5c81-942f-a21e9d5fc6ad" class="er entityLabel">Answers</text></g><g transform="translate(220,370 )" id="entity-Solutions-209befcc-4843-5050-8774-5f434714530c"><rect height="75" width="100" y="0" x="0" class="er entityBox"></rect><text style="dominant-baseline: middle; text-anchor: middle; font-size: 12px;" transform="translate(50,37.5)" y="0" x="0" id="text-entity-Solutions-209befcc-4843-5050-8774-5f434714530c" class="er entityLabel">Solutions</text></g><g transform="translate(1295,195 )" id="entity-Exercises-082f1a58-a9e5-5e90-ac04-71d5cc62da9c"><rect height="75" width="100" y="0" x="0" class="er entityBox"></rect><text style="dominant-baseline: middle; text-anchor: middle; font-size: 12px;" transform="translate(50,37.5)" y="0" x="0" id="text-entity-Exercises-082f1a58-a9e5-5e90-ac04-71d5cc62da9c" class="er entityLabel">Exercises</text></g><g transform="translate(2199.2531242370605,195 )" id="entity-LearningPaths-07e573e6-fabb-53ea-a91a-de1826bef91e"><rect height="75" width="104.76250457763672" y="0" x="0" class="er entityBox"></rect><text style="dominant-baseline: middle; text-anchor: middle; font-size: 12px;" transform="translate(52.38125228881836,37.5)" y="0" x="0" id="text-entity-LearningPaths-07e573e6-fabb-53ea-a91a-de1826bef91e" class="er entityLabel">LearningPaths</text></g><g transform="translate(2101.6812496185303,370 )" id="entity-LockedExercises-977a6909-16fc-55f5-8dbc-815053f0d0c0"><rect height="75" width="117.01250457763672" y="0" x="0" class="er entityBox"></rect><text style="dominant-baseline: middle; text-anchor: middle; font-size: 12px;" transform="translate(58.50625228881836,37.5)" y="0" x="0" id="text-entity-LockedExercises-977a6909-16fc-55f5-8dbc-815053f0d0c0" class="er entityLabel">LockedExercises</text></g><g transform="translate(1188.146873474121,545 )" id="entity-LockedSolutions-39fb33dd-45ab-5ed2-9086-ee675f06be54"><rect height="75" width="116.0875015258789" y="0" x="0" class="er entityBox"></rect><text style="dominant-baseline: middle; text-anchor: middle; font-size: 12px;" transform="translate(58.04375076293945,37.5)" y="0" x="0" id="text-entity-LockedSolutions-39fb33dd-45ab-5ed2-9086-ee675f06be54" class="er entityLabel">LockedSolutions</text></g><g transform="translate(1156.6375007629395,370 )" id="entity-WeeklyChallenges-ac5a6213-81f6-5cb9-b961-fdfd642106ce"><rect height="75" width="126.7249984741211" y="0" x="0" class="er entityBox"></rect><text style="dominant-baseline: middle; text-anchor: middle; font-size: 12px;" transform="translate(63.36249923706055,37.5)" y="0" x="0" id="text-entity-WeeklyChallenges-ac5a6213-81f6-5cb9-b961-fdfd642106ce" class="er entityLabel">WeeklyChallenges</text></g><g transform="translate(1651.6812496185303,370 )" id="entity-Tags-a57fe403-b041-5502-860a-d625a6cdfbee"><rect height="75" width="100" y="0" x="0" class="er entityBox"></rect><text style="dominant-baseline: middle; text-anchor: middle; font-size: 12px;" transform="translate(50,37.5)" y="0" x="0" id="text-entity-Tags-a57fe403-b041-5502-860a-d625a6cdfbee" class="er entityLabel">Tags</text></g><g transform="translate(1895,370 )" id="entity-Categories-4066dbfd-a08d-5786-b5c1-a5236eeca05a"><rect height="75" width="100" y="0" x="0" class="er entityBox"></rect><text style="dominant-baseline: middle; text-anchor: middle; font-size: 12px;" transform="translate(50,37.5)" y="0" x="0" id="text-entity-Categories-4066dbfd-a08d-5786-b5c1-a5236eeca05a" class="er entityLabel">Categories</text></g><g transform="translate(1745,195 )" id="entity-Badges-78c6aa56-d8e3-5821-8cb1-9f38f3f242dc"><rect height="75" width="100" y="0" x="0" class="er entityBox"></rect><text style="dominant-baseline: middle; text-anchor: middle; font-size: 12px;" transform="translate(50,37.5)" y="0" x="0" id="text-entity-Badges-78c6aa56-d8e3-5821-8cb1-9f38f3f242dc" class="er entityLabel">Badges</text></g><g transform="translate(2010.1874980926514,20 )" id="entity-Activities-9161c446-cae7-5b85-a40c-6de85a1438d5"><rect height="75" width="100" y="0" x="0" class="er entityBox"></rect><text style="dominant-baseline: middle; text-anchor: middle; font-size: 12px;" transform="translate(50,37.5)" y="0" x="0" id="text-entity-Activities-9161c446-cae7-5b85-a40c-6de85a1438d5" class="er entityLabel">Activities</text></g><g transform="translate(695,195 )" id="entity-Roles-5dce48c1-dc92-573d-a399-2e1490322426"><rect height="75" width="100" y="0" x="0" class="er entityBox"></rect><text style="dominant-baseline: middle; text-anchor: middle; font-size: 12px;" transform="translate(50,37.5)" y="0" x="0" id="text-entity-Roles-5dce48c1-dc92-573d-a399-2e1490322426" class="er entityLabel">Roles</text></g><g transform="translate(895,195 )" id="entity-Notifications-e553f5cf-b345-54b9-95cc-68255be8d56c"><rect height="75" width="100" y="0" x="0" class="er entityBox"></rect><text style="dominant-baseline: middle; text-anchor: middle; font-size: 12px;" transform="translate(50,37.5)" y="0" x="0" id="text-entity-Notifications-e553f5cf-b345-54b9-95cc-68255be8d56c" class="er entityLabel">Notifications</text></g><rect height="13.600000381469727" width="17.562108993530273" y="134.0065793991089" x="1127.9430665969849" class="er relationshipLabelBox"></rect><text style="text-anchor: middle; dominant-baseline: middle; font-size: 12px;" y="140.80657958984375" x="1136.72412109375" id="rel380" class="er relationshipLabel">ask</text><rect height="13.600000381469727" width="23.582422256469727" y="107.76144695281982" x="448.96113872528076" class="er relationshipLabelBox"></rect><text style="text-anchor: middle; dominant-baseline: middle; font-size: 12px;" y="114.56144714355469" x="460.7523498535156" id="rel381" class="er relationshipLabel">post</text><rect height="13.600000381469727" width="25.938282012939453" y="275.9352903366089" x="585.8870601654053" class="er relationshipLabelBox"></rect><text style="text-anchor: middle; dominant-baseline: middle; font-size: 12px;" y="282.73529052734375" x="598.856201171875" id="rel382" class="er relationshipLabel">have</text><rect height="13.600000381469727" width="37.08242416381836" y="111.0006742477417" x="540.6722278594971" class="er relationshipLabelBox"></rect><text style="text-anchor: middle; dominant-baseline: middle; font-size: 12px;" y="117.80067443847656" x="559.2134399414062" id="rel383" class="er relationshipLabel">submit</text><rect height="13.600000381469727" width="23.582422256469727" y="109.50284099578857" x="1239.7839841842651" class="er relationshipLabelBox"></rect><text style="text-anchor: middle; dominant-baseline: middle; font-size: 12px;" y="116.30284118652344" x="1251.5751953125" id="rel384" class="er relationshipLabel">post</text><rect height="13.600000381469727" width="25.938282012939453" y="275.93525981903076" x="785.8871212005615" class="er relationshipLabelBox"></rect><text style="text-anchor: middle; dominant-baseline: middle; font-size: 12px;" y="282.7352600097656" x="798.8562622070312" id="rel385" class="er relationshipLabel">have</text><rect height="13.600000381469727" width="35.41289138793945" y="98.15481853485107" x="1681.1799068450928" class="er relationshipLabelBox"></rect><text style="text-anchor: middle; dominant-baseline: middle; font-size: 12px;" y="104.95481872558594" x="1698.8863525390625" id="rel386" class="er relationshipLabel">create</text><rect height="13.600000381469727" width="35.41289138793945" y="107.99029064178467" x="1686.6507320404053" class="er relationshipLabelBox"></rect><text style="text-anchor: middle; dominant-baseline: middle; font-size: 12px;" y="114.79029083251953" x="1704.357177734375" id="rel387" class="er relationshipLabel">create</text><rect height="13.600000381469727" width="37.08242416381836" y="391.12102031707764" x="451.4587879180908" class="er relationshipLabelBox"></rect><text style="text-anchor: middle; dominant-baseline: middle; font-size: 12px;" y="397.9210205078125" x="470" id="rel388" class="er relationshipLabel">submit</text><rect height="13.600000381469727" width="39.98749923706055" y="319.7693967819214" x="2219.0736331939697" class="er relationshipLabelBox"></rect><text style="text-anchor: middle; dominant-baseline: middle; font-size: 12px;" y="326.56939697265625" x="2239.0673828125" id="rel389" class="er relationshipLabel">contain</text><rect height="13.600000381469727" width="25.938282012939453" y="527.0023679733276" x="1729.8693599700928" class="er relationshipLabelBox"></rect><text style="text-anchor: middle; dominant-baseline: middle; font-size: 12px;" y="533.8023681640625" x="1742.8385009765625" id="rel390" class="er relationshipLabel">have</text><rect height="13.600000381469727" width="84.2874984741211" y="280.07121562957764" x="575.766773223877" class="er relationshipLabelBox"></rect><text style="text-anchor: middle; dominant-baseline: middle; font-size: 12px;" y="286.8712158203125" x="617.9105224609375" id="rel391" class="er relationshipLabel">participate into</text><rect height="13.600000381469727" width="25.938282012939453" y="285.171404838562" x="1125.3808345794678" class="er relationshipLabelBox"></rect><text style="text-anchor: middle; dominant-baseline: middle; font-size: 12px;" y="291.9714050292969" x="1138.3499755859375" id="rel392" class="er relationshipLabel">have</text><rect height="13.600000381469727" width="59.53750228881836" y="330.46846294403076" x="1323.6086902618408" class="er relationshipLabelBox"></rect><text style="text-anchor: middle; dominant-baseline: middle; font-size: 12px;" y="337.2684631347656" x="1353.37744140625" id="rel393" class="er relationshipLabel">included in</text><rect height="13.600000381469727" width="24.239063262939453" y="123.4736967086792" x="1450.8755855560303" class="er relationshipLabelBox"></rect><text style="text-anchor: middle; dominant-baseline: middle; font-size: 12px;" y="130.27369689941406" x="1462.9951171875" id="rel394" class="er relationshipLabel">save</text><rect height="13.600000381469727" width="25.938282012939453" y="276.90547466278076" x="1445.8813228607178" class="er relationshipLabelBox"></rect><text style="text-anchor: middle; dominant-baseline: middle; font-size: 12px;" y="283.7054748535156" x="1458.8504638671875" id="rel395" class="er relationshipLabel">have</text><rect height="13.600000381469727" width="25.938282012939453" y="278.3449583053589" x="1654.6495113372803" class="er relationshipLabelBox"></rect><text style="text-anchor: middle; dominant-baseline: middle; font-size: 12px;" y="285.14495849609375" x="1667.61865234375" id="rel396" class="er relationshipLabel">have</text><rect height="13.600000381469727" width="35.41289138793945" y="101.8791913986206" x="1440.2642574310303" class="er relationshipLabelBox"></rect><text style="text-anchor: middle; dominant-baseline: middle; font-size: 12px;" y="108.67919158935547" x="1457.970703125" id="rel397" class="er relationshipLabel">create</text><rect height="13.600000381469727" width="75.8277359008789" y="127.86685466766357" x="1883.605297088623" class="er relationshipLabelBox"></rect><text style="text-anchor: middle; dominant-baseline: middle; font-size: 12px;" y="134.66685485839844" x="1921.5191650390625" id="rel398" class="er relationshipLabel">referenced by</text><rect height="13.600000381469727" width="41.67499923706055" y="319.9603452682495" x="1761.2114505767822" class="er relationshipLabelBox"></rect><text style="text-anchor: middle; dominant-baseline: middle; font-size: 12px;" y="326.7603454589844" x="1782.0489501953125" id="rel399" class="er relationshipLabel">refer to</text><rect height="13.600000381469727" width="41.67499923706055" y="288.3900327682495" x="1914.4684085845947" class="er relationshipLabelBox"></rect><text style="text-anchor: middle; dominant-baseline: middle; font-size: 12px;" y="295.1900329589844" x="1935.305908203125" id="rel400" class="er relationshipLabel">refer to</text><rect height="13.600000381469727" width="41.67499923706055" y="308.5652952194214" x="1492.7821292877197" class="er relationshipLabelBox"></rect><text style="text-anchor: middle; dominant-baseline: middle; font-size: 12px;" y="315.36529541015625" x="1513.61962890625" id="rel401" class="er relationshipLabel">refer to</text><rect height="13.600000381469727" width="25.938282012939453" y="106.53139781951904" x="857.9518184661865" class="er relationshipLabelBox"></rect><text style="text-anchor: middle; dominant-baseline: middle; font-size: 12px;" y="113.3313980102539" x="870.9209594726562" id="rel402" class="er relationshipLabel">have</text><rect height="13.600000381469727" width="40.19414138793945" y="125.40639019012451" x="949.841100692749" class="er relationshipLabelBox"></rect><text style="text-anchor: middle; dominant-baseline: middle; font-size: 12px;" y="132.20639038085938" x="969.9381713867188" id="rel403" class="er relationshipLabel">receive</text></svg>